<?xml version="1.0" encoding="utf-8"?>
<!-- Generator: Adobe Illustrator 23.0.0, SVG Export Plug-In . SVG Version: 6.00 Build 0)  -->
<svg version="1.1" id="Livello_1" xmlns="http://www.w3.org/2000/svg" xmlns:xlink="http://www.w3.org/1999/xlink" x="0px" y="0px"
	 viewBox="0 0 448.6 237.4" style="enable-background:new 0 0 448.6 237.4;" xml:space="preserve">
<style type="text/css">
	.st0{fill:#AE1280;}
	.st1{fill:#E30521;}
	.st2{fill:#F29100;}
	.st3{fill:#FFCF00;}
	.st4{fill:#65B22E;}
	.st5{fill:#00AED2;}
	.st6{fill:#0088CF;}
	.st7{fill:#0052A0;}
	.st8{fill:#FFFFFF;}
</style>
<g id="XMLID_8_">
	<g id="XMLID_3_">
		<path id="XMLID_14_" class="st0" d="M123.4,104.5h113.5c-2.7-22.2-11.5-42.6-24.7-59.3L123.4,104.5z"/>
		<path id="XMLID_12_" class="st1" d="M114.7,104.4l94.4-63c-14.6-17-33.2-29-53.5-35.6L114.7,104.4z"/>
		<path id="XMLID_11_" class="st2" d="M107.4,109.2L150.8,4.4c-21.6-6-43.7-5.7-64.3,0.1L107.4,109.2z"/>
		<path id="XMLID_9_" class="st3" d="M103.9,117.3L81.8,6c-21.3,7-39.5,19.6-53.4,35.8L103.9,117.3z"/>
		<path id="XMLID_7_" class="st4" d="M105.5,125.8L25.3,45.6C11.5,63.2,3.3,83.8,0.8,105L105.5,125.8z"/>
		<path id="XMLID_6_" class="st5" d="M111.6,132.1L0.3,109.9c-1.7,22.3,3,44,12.7,63L111.6,132.1z"/>
		<path id="XMLID_5_" class="st6" d="M120.2,133.9L15.4,177.3c11,19.5,26.9,35,45.5,45.3L120.2,133.9z"/>
		<path id="XMLID_4_" class="st7" d="M128.3,130.6l-63,94.4c20,10.1,41.8,14.1,63,12.4V130.6z"/>
	</g>
	<g id="XMLID_20_">
		<polygon id="XMLID_18_" class="st8" points="259.1,141.1 337.7,141.1 342.1,118.9 259.1,118.9 		"/>
		<rect id="XMLID_17_" x="259.1" y="215.2" class="st8" width="78.6" height="22.2"/>
		<rect id="XMLID_16_" x="259.1" y="166.1" class="st8" width="78.6" height="22.2"/>
		<polygon id="XMLID_15_" class="st8" points="214.7,118.9 214.7,207.8 173.5,118.9 142.7,118.9 142.7,237.4 164.8,237.4 
			164.8,148.8 205.3,237.4 236.9,237.4 236.9,118.9 		"/>
		<path id="XMLID_21_" class="st8" d="M448.6,156.6c0,27.3-20.5,39.4-49.3,39.4h-15v41.3h-24.4V118.9h37.7
			C429.7,118.9,448.6,131.1,448.6,156.6 M423.8,156.7c0-13.4-9.8-18.9-26.4-18.9h-13.1v39h13.1C413.6,176.8,423.8,172.2,423.8,156.7
			"/>
	</g>
</g>
</svg>
