<svg xmlns="http://www.w3.org/2000/svg" width="37" height="44" viewBox="0 0 37 44" class="nav__logo"><defs><linearGradient id="svglogo" x1="76.499%" x2="23.508%" y1="92.403%" y2="7.598%"><stop offset="0%" stop-color="#E73E11"></stop> <stop offset="39.72%" stop-color="#EB6209"></stop> <stop offset="100%" stop-color="#F59E00"></stop></linearGradient> <linearGradient id="svglogob" x1="89.786%" x2="14.587%" y1="89.741%" y2="14.576%"><stop offset="0%" stop-color="#E73E11"></stop> <stop offset="39.72%" stop-color="#EB6209"></stop> <stop offset="100%" stop-color="#F59E00"></stop></linearGradient></defs> <g fill="none"><g fill="#FFF"><path d="M17.836 39.089l.694 1.734h-1.397l.703-1.734zm-.744-1.504L14.7 42.998h1.569l.422-1.053h2.293l.422 1.053h1.609l-2.403-5.413h-1.519zM3.046 42.026l.765 1.884h1.598l-.834-1.884zm22.08-4.441v2.887l-2.393-2.887h-1.267v5.413h1.508V40.11l2.393 2.887h1.267v-5.413zm7.44 0v5.413h4.364v-1.183h-2.846v-.992h2.413V39.68h-2.413v-.912h2.745v-1.183zM7.078 39.68h1.518v1.143H7.078zm21.778.05v1.113c0 .531.432.962.965.962h2.061v1.193H29.38a2.05 2.05 0 0 1-2.051-2.045V39.62a2.05 2.05 0 0 1 2.05-2.045h2.504v1.183h-2.06a.986.986 0 0 0-.966.972"></path> <path d="M2.504 41.815a.964.964 0 0 1-.966-.962V39.74c0-.53.433-.972.966-.972v.01H3.82v-.01c.533 0 .965.441.965.972v1.113a.964.964 0 0 1-.965.962H2.504zm-.443-4.23a2.05 2.05 0 0 0-2.05 2.045v1.333a2.04 2.04 0 0 0 2.05 2.035h2.212a2.048 2.048 0 0 0 2.051-2.035V39.63a2.05 2.05 0 0 0-2.05-2.045H2.06zm11.191 3.268a.964.964 0 0 1-.966.962H10.99v-3.047h1.297c.533 0 .966.431.966.962v1.123zm-.523-3.268H9.46v5.413h3.268a2.05 2.05 0 0 0 2.05-2.045V39.62a2.041 2.041 0 0 0-2.05-2.035z"></path></g> <path fill="url(#svglogo)" d="M18.168 32.835C9.1 32.835 1.72 25.478 1.72 16.437 1.72 7.397 9.1.04 18.17.04c9.068 0 16.448 7.357 16.448 16.397.01 9.04-7.38 16.398-16.449 16.398zm0-31.131c-8.144 0-14.78 6.605-14.78 14.733 0 8.119 6.626 14.734 14.78 14.734 8.144 0 14.78-6.605 14.78-14.734 0-8.118-6.626-14.733-14.78-14.733z"></path> <path fill="url(#svglogob)" d="M22.602 17.95a2.056 2.056 0 0 0-2.906 0 2.04 2.04 0 0 0 0 2.897l4.696 4.681a2.044 2.044 0 0 0 2.896 0 2.04 2.04 0 0 0 0-2.897l-4.686-4.68zM18.138 4.892c-6.364 0-11.552 5.162-11.552 11.516 0 6.345 5.178 11.516 11.552 11.516.513 0 1.036-.03 1.548-.1a2.048 2.048 0 1 0-.553-4.059c-.331.04-.663.07-.995.07-4.102 0-7.44-3.327-7.44-7.417 0-4.089 3.338-7.417 7.44-7.417s7.44 3.328 7.44 7.417c0 .28-.02.582-.05.862a2.043 2.043 0 0 0 1.8 2.265A2.046 2.046 0 0 0 29.6 17.75c.05-.45.08-.902.08-1.343.01-6.354-5.178-11.516-11.542-11.516z"></path></g></svg>