<?xml version="1.0" encoding="utf-8"?>
<!-- Generator: Adobe Illustrator 23.0.0, SVG Export Plug-In . SVG Version: 6.00 Build 0)  -->
<svg version="1.1" id="Livello_1" xmlns="http://www.w3.org/2000/svg" xmlns:xlink="http://www.w3.org/1999/xlink" x="0px" y="0px"
	 viewBox="0 0 283.5 171.6" style="enable-background:new 0 0 283.5 171.6;" xml:space="preserve">
<style type="text/css">
	.st0{fill:#FFFFFF;}
</style>
<path class="st0" d="M0,56.4v63.7c0,8.8,13.6,14.5,16.2,14.5c3.9,0,10.6,0,11.1,0c-0.1,0.3-0.3,2.5-0.3,16.5
	c0,17.8,20.5,20.5,20.5,20.5s-4-5.6-4-7.5c0-29.9,0-117.8,0-117.8h4.3v-6.1c0,0-13.4,0-27.9,0C7.7,40.3,0,52.4,0,56.4z M27.1,60.3
	c0,5.1,0.3,68.6,0.3,68.6h-8.9c0,0-3.9-1.2-3.9-4c0-2.9,0-56.8,0-73.6c0-1.8,2.7-5.1,5.1-5.1c2.4,0,13.4,0,13.4,0
	S27.1,49.7,27.1,60.3z"/>
<path class="st0" d="M70.4,124.8c0,0-0.1-86.9-0.1-116.3c0-2,3.7-8.5,3.7-8.5S54.2,2.9,54.2,19.7c0,24.8,0,83.9,0,97.3
	c0,11.7,11.8,17.7,15.2,17.7c2.7,0,9.9,0,9.9,0v-5.8c0,0-5.1,0-6.8,0C70.7,128.8,70.4,124.8,70.4,124.8z"/>
<path class="st0" d="M76,46.1c0,0,2.2,0,4.7,0c2.5,0,4.5,4.5,4.5,6.5c0,20.9,0,82.1,0,82.1h16.3c0,0,0-69.3,0-75.7
	s-6.4-12.9-6.4-12.9h6.4v-5.8H76V46.1z"/>
<path class="st0" d="M91.5,33.3c1.7-4.3-3.4-9.6-3.4-9.6v3.5c-1.8,1.3-10.4,10.1-10.4,10.1h11.1C88.8,37.4,89.9,37.4,91.5,33.3z"/>
<path class="st0" d="M157.8,38.5c-7.9,0-12.3,4.2-12.6,4.2c-0.3,0-5.5-3.9-12.9-3.9c-9.9,0-12.4,4-12.4,4s-3.9-2.3-5.3-2.9
	c-1.6-0.6-4.2-0.8-4.2-0.8s2.5,4,2.5,5.3c0,16.5,0,76.6,0,76.6c0,7,13.4,13.6,13.4,13.6V52.2c0,0,0.5-5.4,5.9-5.4
	c5.4,0,5.9,5.3,5.9,5.3l0.1,82.6h13.1c0,0,0-80.3,0-81.9c0-1.5,1.6-6.2,6.2-6.2c4.9,0,5.8,5.7,5.8,5.7v82.4c0,0,13-5.4,13-15.8
	c0-15.2,0-55.3,0-66.4C176.3,43.3,163.6,38.5,157.8,38.5z"/>
<path class="st0" d="M283.5,70.1v-30c-5.6,0-15,11.8-15,17.5c0,5.6,0,17.7,0,17.7s-1.2,5.2-7.2,5.2c-6.1,0-7.6-5.7-7.6-5.7
	s0-6.9,0-17.7c0-10.8-15.2-17-15.2-17s0,20.9,0,31c0,6.4,10.3,12.3,10.3,12.3s-10.3,9.8-10.3,13.6c0,6.5,0,5.2,0,37.6
	c7.5,0,15.2-11.5,15.2-17.3c0-6,0-22.7,0-24.4c0-1.7,2-7.1,7.6-7.1c5.6,0,6.9,6.7,6.9,6.7s0.1,15.5,0.1,24.9
	c0,9.4,15.2,17.1,15.2,17.1V97c0-4.7-10.8-14.1-10.8-14.1S283.5,75.8,283.5,70.1z"/>
<path class="st0" d="M209.9,40.1c-6.7,0-25.6,0-25.6,0c1.2,5.9,5.6,6.7,5.6,6.7s14.8,0,18.9,0c4,0,5.2,5.6,5.2,5.6v9.4
	c0,0,0-0.2-11.3-0.2c-9.1,0-18.4,12-18.4,18.5c0,9.8,0,24.4,0,37.4c0,10.9,15.3,17.1,18.5,17.1c6.6,0,26.8,0,26.8,0s0-56.3,0-74.7
	C229.6,42.4,214.6,40.1,209.9,40.1z M205.7,128.3c-1.3,0-5.9-3.5-5.9-6.7c0-3.5,0-35.5,0-48.7c0-2,1.9-5.7,5.4-5.7
	c2.6,0,9.1,0,9.1,0s0,37.9,0,50c0,4.7,5.7,11.1,5.7,11.1S209.4,128.3,205.7,128.3z"/>
</svg>
